<?xml version="1.0" standalone="no"?>
<!DOCTYPE svg PUBLIC "-//W3C//DTD SVG 20010904//EN"
 "http://www.w3.org/TR/2001/REC-SVG-20010904/DTD/svg10.dtd">
<svg version="1.0" xmlns="http://www.w3.org/2000/svg"
 width="1280.000000pt" height="1280.000000pt" viewBox="0 0 1280.000000 1280.000000"
 preserveAspectRatio="xMidYMid meet">
<metadata>
Created by potrace 1.15, written by Peter Selinger 2001-2017
</metadata>
<g transform="translate(0.000000,1280.000000) scale(0.100000,-0.100000)"
fill="#000000" stroke="none">
<path d="M6490 10833 c-1331 -100 -2520 -746 -3310 -1798 -1007 -1341 -1169
-3128 -420 -4626 302 -601 759 -1148 1304 -1558 1336 -1005 3138 -1182 4659
-458 392 187 783 452 1107 749 1374 1260 1816 3210 1118 4938 -112 278 -311
638 -489 885 -771 1075 -1946 1744 -3269 1860 -147 13 -568 18 -700 8z m1015
-1303 c735 -151 1417 -568 1883 -1150 370 -463 590 -985 668 -1585 24 -181 24
-563 0 -740 -82 -612 -303 -1134 -680 -1610 -94 -119 -317 -348 -436 -450
-517 -439 -1135 -705 -1825 -785 -133 -16 -494 -21 -625 -9 -803 71 -1517 398
-2066 944 -144 144 -245 262 -352 411 -674 945 -767 2177 -242 3223 356 711
985 1285 1730 1580 179 71 470 161 522 161 17 0 18 -12 18 -186 0 -102 4 -249
10 -327 5 -78 19 -284 30 -457 11 -173 30 -450 40 -615 11 -165 27 -406 35
-535 9 -129 17 -264 20 -300 2 -36 7 -101 10 -145 27 -412 37 -564 50 -780 17
-280 58 -569 84 -599 15 -18 30 -18 326 -12 171 3 356 6 411 6 152 0 143 -15
154 260 5 124 19 473 30 775 11 303 29 777 40 1055 11 278 22 597 25 710 4
113 8 216 11 230 7 34 5 915 -2 934 -8 21 11 21 131 -4z"/>
<path d="M6800 5264 c-283 -6 -536 -12 -562 -13 -83 -2 -80 30 -68 -587 10
-496 12 -549 34 -667 14 -77 30 -135 39 -144 18 -18 11 -18 587 -8 505 9 596
14 615 35 15 17 16 62 6 572 -9 479 -13 568 -30 661 -11 59 -23 117 -26 128
-7 20 -44 41 -68 37 -7 0 -244 -7 -527 -14z"/>
</g>
</svg>
