<?xml version="1.0" standalone="no"?>
<!DOCTYPE svg PUBLIC "-//W3C//DTD SVG 20010904//EN"
 "http://www.w3.org/TR/2001/REC-SVG-20010904/DTD/svg10.dtd">
<svg version="1.0" xmlns="http://www.w3.org/2000/svg"
 width="944.000000pt" height="1280.000000pt" viewBox="0 0 944.000000 1280.000000"
 preserveAspectRatio="xMidYMid meet">
<metadata>
Created by potrace 1.15, written by Peter Selinger 2001-2017
</metadata>
<g transform="translate(0.000000,1280.000000) scale(0.100000,-0.100000)"
fill="#000000" stroke="none">
<path d="M3450 12789 c-559 -50 -1045 -244 -1480 -589 -136 -108 -392 -365
-504 -505 -307 -386 -499 -806 -575 -1263 -36 -215 -41 -332 -41 -1072 l0
-725 -108 -52 c-200 -96 -390 -241 -461 -352 -44 -68 -77 -154 -96 -250 -10
-46 -34 -120 -55 -165 -44 -95 -80 -206 -106 -326 -18 -82 -19 -199 -19 -3050
0 -2821 1 -2969 18 -3049 30 -139 66 -241 124 -351 73 -139 143 -232 277 -366
228 -228 467 -338 799 -368 37 -4 131 -22 210 -41 508 -122 1229 -205 2147
-246 384 -17 1538 -23 1980 -10 1168 34 1844 101 2408 242 112 28 240 54 285
59 45 4 96 11 112 15 286 62 452 151 651 349 225 225 338 427 401 717 17 80
18 228 18 3044 0 2849 -1 2963 -19 3045 -19 90 -76 261 -105 320 -10 19 -21
65 -24 102 -17 184 -100 351 -231 460 -75 63 -225 156 -348 216 l-117 57 -1
661 0 660 -55 385 c-35 247 -62 400 -74 429 -11 25 -47 120 -81 211 -123 333
-329 654 -599 933 -458 473 -995 752 -1651 858 -133 22 -152 22 -1360 24 -674
1 -1268 -2 -1320 -7z m1829 -2534 c-22 -131 -36 -241 -32 -245 4 -4 26 -13 48
-20 115 -35 269 -171 326 -286 58 -117 69 -214 69 -616 l0 -358 -970 0 -970 0
0 388 c0 429 5 477 62 592 43 89 169 215 258 258 118 58 156 62 667 62 l462 0
11 38 c17 66 100 416 100 426 0 5 2 7 5 4 3 -2 -13 -112 -36 -243z"/>
</g>
</svg>
